#!OML:ASF Y:\EmotionMaleHayes\Project 1\Capture day 1\Session 1\Male1.ASF
:FULLY-SPECIFIED
:DEGREES
289
root 37.4966 15.1226 -0.952635 646.838 78.7941 653.418
lowerback 10.0614 4.67287 4.33048
upperback 3.04483 6.78094 1.14625
thorax -2.0799 3.4269 -1.99581
lowerneck -22.208 -0.947943 3.7556
upperneck 21.9769 -2.88293 1.4722
head 10.7341 -0.741278 -0.524193
rclavicle -4.37326e-014 -1.90833e-014
rhumerus -24.0907 44.2783 -88.6231
rradius 117.461
rwrist -18.4622
rhand -13.3516 -17.9122
rfingers 7.12502
rthumb 12.7543 -47.5026
lclavicle -4.37326e-014 -1.90833e-014
lhumerus -82.3385 -16.7808 82.0051
lradius 44.3982
lwrist 23.3788
lhand -33.1604 -25.2911
lfingers 7.12502
lthumb -6.36903 4.59312
rfemur 20.4678 4.40216 32.7775
rtibia 41.0602
rfoot -28.9005 -3.44176
rtoes -14.9542
lfemur -34.1789 4.62644 -0.511898
ltibia 31.4392
lfoot -0.456892 11.5938
ltoes 15.7202
290
root 37.7109 15.1248 -0.999019 645.053 80.4169 651.179
lowerback 9.90279 4.65101 3.02201
upperback 3.12309 6.59782 0.731285
thorax -2.02194 3.33649 -1.66952
lowerneck -22.4386 -1.22423 3.58837
upperneck 21.5038 -3.0883 0.931764
head 10.5883 -0.939001 -0.723243
rclavicle -1.18277e-014 -1.19271e-014
rhumerus -27.2673 41.5637 -91.6293
rradius 116.688
rwrist -17.3045
rhand -12.8007 -18.1304
rfingers 7.12502
rthumb 13.2853 -47.687
lclavicle -1.18277e-014 -1.19271e-014
lhumerus -79.1598 -17.2564 82.4699
lradius 42.1618
lwrist 22.2526
lhand -32.9463 -25.9445
lfingers 7.12502
lthumb -6.16238 3.9459
rfemur 19.5956 4.39618 31.1279
rtibia 42.9281
rfoot -26.6568 -3.34742
rtoes -14.5468
lfemur -34.8883 5.06721 -3.00507
ltibia 32.7085
lfoot 0.649158 11.5128
ltoes 13.0866
291
root 37.9336 15.1338 -1.04631 642.797 81.9077 648.674
lowerback 9.52484 4.47912 2.31147
upperback 3.47153 6.27497 0.0176814
thorax -1.46407 3.19443 -1.92254
lowerneck -22.9007 -1.48041 2.60458
upperneck 21.176 -3.40868 2.03078
head 10.5915 -1.03329 -0.219539
rclavicle 4.36332e-014 -1.51076e-014
rhumerus -29.6904 38.5842 -94.6152
rradius 115.427
rwrist -16.663
rhand -12.5039 -18.4316
rfingers 7.12502
rthumb 13.5713 -47.9693
lclavicle 4.36332e-014 -1.51076e-014
lhumerus -75.1918 -17.6314 82.1106
lradius 39.4668
lwrist 20.7733
lhand -32.5651 -26.4392
lfingers 7.12502
lthumb -5.79429 3.4616
rfemur 18.918 4.29656 29.4871
rtibia 44.7287
rfoot -24.1466 -2.84146
rtoes -12.1826
lfemur -35.0799 5.56482 -5.40612
ltibia 33.4593
lfoot 2.00776 11.4095
ltoes 8.6649
292
root 38.1508 15.1499 -1.07833 639.933 82.4923 645.961
lowerback 9.75666 4.46448 2.15296
upperback 3.80858 6.25381 -0.213616
thorax -1.23308 3.19887 -2.07216
lowerneck -23.2911 -1.53936 2.22966
upperneck 20.6797 -3.35095 1.94159
head 10.4842 -1.06549 -0.183681
rclavicle -1.07741e-013 1.27222e-014
rhumerus -31.9719 35.0434 -96.7972
rradius 113.715
rwrist -16.5828
rhand -12.607 -18.0114
rfingers 7.12502
rthumb 13.472 -47.5557
lclavicle -1.07741e-013 1.27222e-014
lhumerus -70.9085 -17.8646 81.8418
lradius 36.414
lwrist 18.7534
lhand -32.3247 -27.4673
lfingers 7.12502
lthumb -5.56219 2.43966
rfemur 18.5379 4.30135 29.0382
rtibia 46.5122
rfoot -21.2998 -2.5545
rtoes -8.57006
lfemur -34.6594 6.26052 -6.55546
ltibia 34.0595
lfoot 2.32302 9.35596
ltoes 9.12324
293
root 38.3522 15.1778 -1.10914 637.456 83.0492 643.605
lowerback 10.1152 4.46069 1.96097
upperback 3.97608 6.24279 -0.444283
thorax -1.2498 3.19999 -2.22557
lowerneck -23.1958 -1.76429 1.7727
upperneck 20.0799 -3.49478 1.95447
head 10.2557 -1.18635 -0.124058
rclavicle -5.00937e-014 1.19271e-014
rhumerus -34.0498 31.2535 -98.5903
rradius 111.391
rwrist -17.2047
rhand -12.453 -18.4122
rfingers 7.12502
rthumb 13.6204 -47.9466
lclavicle -5.00937e-014 1.19271e-014
lhumerus -66.6809 -17.6996 81.2412
lradius 33.4912
lwrist 16.4573
lhand -32.0799 -27.906
lfingers 7.12502
lthumb -5.32591 2.00708
rfemur 18.0233 4.23443 28.5432
rtibia 48.1508
rfoot -17.8944 -2.59333
rtoes -5.39309
lfemur -34.0545 6.49422 -7.51586
ltibia 34.4274
lfoot 2.35431 8.36734
ltoes 9.42656
